<svg width="76" height="30" viewBox="0 0 76 30" fill="none" xmlns="http://www.w3.org/2000/svg">
<path d="M9.28 0.919999C10.6133 0.946665 11.9867 1.01333 13.4 1.12C14.84 1.22667 16.2667 1.44 17.68 1.76L17.4 4.6C16.2533 4.54667 14.96 4.50666 13.52 4.48C12.1067 4.45333 10.7333 4.44 9.4 4.44C8.46667 4.44 7.66667 4.46667 7 4.52C6.33333 4.57333 5.78667 4.72 5.36 4.96C4.93333 5.2 4.61333 5.58667 4.4 6.12C4.21333 6.65333 4.12 7.38667 4.12 8.32C4.12 9.73333 4.38667 10.7333 4.92 11.32C5.45333 11.88 6.32 12.3067 7.52 12.6L13.08 14.08C15.2133 14.6133 16.68 15.52 17.48 16.8C18.28 18.0533 18.68 19.7467 18.68 21.88C18.68 23.48 18.4933 24.7733 18.12 25.76C17.7733 26.7467 17.2133 27.5067 16.44 28.04C15.6933 28.5733 14.72 28.9467 13.52 29.16C12.32 29.3733 10.8933 29.48 9.24 29.48C8.33333 29.48 7.13333 29.44 5.64 29.36C4.14667 29.28 2.42667 29.0533 0.48 28.68L0.76 25.76C2.33333 25.8133 3.61333 25.8667 4.6 25.92C5.61333 25.9467 6.48 25.96 7.2 25.96C7.92 25.96 8.64 25.96 9.36 25.96C10.6933 25.96 11.7467 25.8667 12.52 25.68C13.2933 25.4667 13.84 25.0667 14.16 24.48C14.48 23.8667 14.64 22.9867 14.64 21.84C14.64 20.8533 14.52 20.08 14.28 19.52C14.0667 18.96 13.7067 18.5467 13.2 18.28C12.72 17.9867 12.0933 17.7467 11.32 17.56L5.6 16C3.6 15.44 2.18667 14.5333 1.36 13.28C0.533334 12.0267 0.12 10.36 0.12 8.28C0.12 6.68 0.293333 5.38667 0.64 4.4C1.01333 3.41333 1.57333 2.68 2.32 2.2C3.06667 1.69333 4.01333 1.36 5.16 1.2C6.30667 1.01333 7.68 0.919999 9.28 0.919999ZM34.9463 0.88C35.9329 0.88 36.8663 0.906666 37.7463 0.959999C38.6529 1.01333 39.5196 1.10666 40.3463 1.24C41.1996 1.34667 42.0263 1.52 42.8263 1.76L42.4263 4.72C41.5729 4.64 40.7196 4.58667 39.8663 4.56C39.0396 4.50667 38.2263 4.48 37.4263 4.48C36.6263 4.45333 35.8529 4.44 35.1063 4.44C33.6929 4.44 32.4929 4.57333 31.5063 4.84C30.5196 5.10667 29.7329 5.62667 29.1463 6.4C28.5863 7.17333 28.1729 8.28 27.9063 9.72C27.6396 11.16 27.5063 13.04 27.5063 15.36C27.5063 18 27.6796 20.0933 28.0263 21.64C28.3996 23.1867 28.9996 24.3067 29.8263 25C30.6796 25.6933 31.8129 26.04 33.2263 26.04C34.2129 26.04 35.1063 25.9067 35.9063 25.64C36.7063 25.3733 37.4529 25.0267 38.1463 24.6C38.8663 24.1467 39.5463 23.6933 40.1863 23.24L40.7063 25.56C40.2529 26.0933 39.5996 26.68 38.7463 27.32C37.9196 27.9333 36.9463 28.4533 35.8263 28.88C34.7063 29.3067 33.4396 29.52 32.0263 29.52C29.9729 29.52 28.2929 29.0133 26.9863 28C25.7063 26.9867 24.7596 25.4267 24.1463 23.32C23.5596 21.1867 23.2663 18.4533 23.2663 15.12C23.2663 11.4933 23.6396 8.64 24.3863 6.56C25.1329 4.48 26.3596 3.01333 28.0663 2.16C29.7729 1.30667 32.0663 0.88 34.9463 0.88ZM43.5863 13.04V29H40.6663L40.0263 24.92L39.6663 24.04V13.04H43.5863ZM55.1497 1.36C56.4564 1.36 57.7764 1.37333 59.1097 1.4C60.443 1.4 61.763 1.41333 63.0697 1.44C64.3764 1.46667 65.6164 1.53333 66.7897 1.64L66.5897 4.68H56.3097C55.403 4.68 54.7364 4.88 54.3097 5.28C53.9097 5.68 53.7097 6.32 53.7097 7.2V29H49.7097V6.44C49.7097 4.84 50.203 3.6 51.1897 2.72C52.1764 1.81333 53.4964 1.36 55.1497 1.36ZM50.3897 13.32H65.0697V16.44H50.3897V13.32ZM75.7194 1.4V29H71.7194V1.4H75.7194Z" fill="#44CC00"/>
</svg>
