<svg width="16" height="16" viewBox="0 0 16 16" fill="none" xmlns="http://www.w3.org/2000/svg">
<path d="M13 2H11.5V1.5C11.5 1.36739 11.4473 1.24021 11.3536 1.14645C11.2598 1.05268 11.1326 1 11 1C10.8674 1 10.7402 1.05268 10.6464 1.14645C10.5527 1.24021 10.5 1.36739 10.5 1.5V2H5.5V1.5C5.5 1.36739 5.44732 1.24021 5.35355 1.14645C5.25979 1.05268 5.13261 1 5 1C4.86739 1 4.74021 1.05268 4.64645 1.14645C4.55268 1.24021 4.5 1.36739 4.5 1.5V2H3C2.73478 2 2.48043 2.10535 2.29289 2.29289C2.10536 2.48043 2 2.73478 2 3V13C2 13.2652 2.10536 13.5195 2.29289 13.7071C2.48043 13.8946 2.73478 14 3 14H13C13.2652 14 13.5196 13.8946 13.7071 13.7071C13.8946 13.5195 14 13.2652 14 13V3C14 2.73478 13.8946 2.48043 13.7071 2.29289C13.5196 2.10535 13.2652 2 13 2ZM4.5 3V3.5C4.5 3.6326 4.55268 3.75978 4.64645 3.85355C4.74021 3.94732 4.86739 3.99999 5 3.99999C5.13261 3.99999 5.25979 3.94732 5.35355 3.85355C5.44732 3.75978 5.5 3.6326 5.5 3.5V3H10.5V3.5C10.5 3.6326 10.5527 3.75978 10.6464 3.85355C10.7402 3.94732 10.8674 3.99999 11 3.99999C11.1326 3.99999 11.2598 3.94732 11.3536 3.85355C11.4473 3.75978 11.5 3.6326 11.5 3.5V3H13V4.99999H3V3H4.5ZM13 13H3V5.99999H13V13Z" fill="#8F8F8F"/>
</svg>
